<?xml version="1.0" encoding="UTF-8"?>
<svg width="550px" height="550px" viewBox="0 0 550 550" version="1.1" xmlns="http://www.w3.org/2000/svg" xmlns:xlink="http://www.w3.org/1999/xlink">
    <title>Formdesk</title>
    <g id="Page-1" stroke="none" stroke-width="1" fill="none" fill-rule="evenodd">
        <g id="Formdesk" transform="translate(-100.000000, -100.000000)">
            <g transform="translate(100.000000, 100.000000)">
                <rect id="Rectangle" fill="#FFFFFF" x="0" y="0" width="550" height="550"></rect>
                <g id="Group-3" transform="translate(76.000000, 68.000000)">
                    <g id="formdesk-copy" transform="translate(0.000000, 21.781768)" fill-rule="nonzero">
                        <path d="M153.581662,96.4854487 C153.581662,98.1760418 153.486502,99.5285163 153.309776,100.542872 C153.139848,101.570753 152.942731,102.382238 152.704831,103.011138 C152.480525,103.626514 152.195045,104.045781 151.841594,104.275702 C151.474549,104.49886 151.039532,104.600296 150.509355,104.600296 C149.884018,104.600296 149.102347,104.404187 148.157544,103.998445 C147.226336,103.606227 146.084417,103.15991 144.758974,102.679782 C143.426735,102.186129 141.843001,101.739812 140.021368,101.340832 C138.199734,100.948615 136.079027,100.752506 133.672839,100.752506 C130.383024,100.752506 127.575805,101.279971 125.25798,102.348426 C122.940155,103.410118 121.070942,105.066899 119.65034,107.325532 C118.22294,109.577402 117.196572,112.505509 116.578033,116.096329 C115.952696,119.673624 115.63323,124.042117 115.63323,129.18152 L115.63323,142.212612 L142.495527,142.212612 C143.202429,142.212612 143.800578,142.368146 144.296769,142.672453 C144.779366,142.990285 145.234774,143.51775 145.622211,144.281898 C146.036837,145.025759 146.335911,145.986016 146.560216,147.122094 C146.784522,148.27846 146.893276,149.698558 146.893276,151.375627 C146.893276,154.574229 146.492245,156.866673 145.690183,158.286771 C144.894917,159.70687 143.820969,160.416919 142.48873,160.416919 L115.619636,160.416919 L115.619636,265.294555 C115.619636,265.997842 115.449707,266.586168 115.096256,267.079821 C114.742805,267.566712 114.137859,267.992741 113.295014,268.344385 C112.445372,268.709553 111.310249,268.959761 109.88285,269.135582 C108.462248,269.311404 106.667803,269.406077 104.526704,269.406077 C102.405996,269.406077 100.618348,269.311404 99.1909489,269.135582 C97.7703467,268.973286 96.6420215,268.709553 95.792379,268.344385 C94.9427365,267.992741 94.337791,267.573474 93.9843398,267.079821 C93.6172942,266.599693 93.4473657,265.991079 93.4473657,265.294555 L93.4473657,160.423681 L76.4885018,160.423681 C75.0611025,160.423681 74.0075458,159.713632 73.2802518,158.293534 C72.5665521,156.873436 72.2063037,154.580991 72.2063037,151.382389 C72.2063037,149.698558 72.3082608,148.291985 72.4713922,147.128857 C72.654915,145.992778 72.9268005,145.025759 73.2734547,144.28866 C73.626906,143.524512 74.0755172,142.997047 74.5988969,142.679216 C75.1426681,142.374909 75.7612079,142.219374 76.4681104,142.219374 L93.4337714,142.219374 L93.4337714,129.86452 C93.4337714,121.533277 94.2154425,114.378686 95.7787847,108.400749 C97.3217354,102.422812 99.7075315,97.5200917 102.915782,93.7128759 C106.130829,89.8988978 110.154735,87.0857508 115.007893,85.2599102 C119.861051,83.4543568 125.584243,82.5414365 132.177469,82.5414365 C135.297356,82.5414365 138.315286,82.8254561 141.265245,83.3934954 C144.194812,83.9750594 146.478651,84.6039601 148.075979,85.2531479 C149.680104,85.9226227 150.740457,86.5244739 151.284229,87.051939 C151.821203,87.5861664 152.263017,88.2759284 152.616468,89.121225 C152.990311,89.9597592 153.228211,90.974115 153.357356,92.1845797 C153.500096,93.3747573 153.581662,94.8151427 153.581662,96.4854487" id="Path" fill="#86888F"></path>
                        <path d="M153.581662,96.4854487 C153.581662,98.1760418 153.486502,99.5285163 153.309776,100.542872 C153.139848,101.570753 152.942731,102.382238 152.704831,103.011138 C152.480525,103.626514 152.195045,104.045781 151.841594,104.275702 C151.474549,104.49886 151.039532,104.600296 150.509355,104.600296 C149.884018,104.600296 149.102347,104.404187 148.157544,103.998445 C147.226336,103.606227 146.084417,103.15991 144.758974,102.679782 C143.426735,102.186129 141.843001,101.739812 140.021368,101.340832 C138.199734,100.948615 136.079027,100.752506 133.672839,100.752506 C130.383024,100.752506 127.575805,101.279971 125.25798,102.348426 C122.940155,103.410118 121.070942,105.066899 119.65034,107.325532 C118.22294,109.577402 117.196572,112.505509 116.578033,116.096329 C115.952696,119.673624 115.63323,124.042117 115.63323,129.18152 L115.63323,142.212612 L142.495527,142.212612 C143.202429,142.212612 143.800578,142.368146 144.296769,142.672453 C144.779366,142.990285 145.234774,143.51775 145.622211,144.281898 C146.036837,145.025759 146.335911,145.986016 146.560216,147.122094 C146.784522,148.27846 146.893276,149.698558 146.893276,151.375627 C146.893276,154.574229 146.492245,156.866673 145.690183,158.286771 C144.894917,159.70687 143.820969,160.416919 142.48873,160.416919 L115.619636,160.416919 L115.619636,265.294555 C115.619636,265.997842 115.449707,266.586168 115.096256,267.079821 C114.742805,267.566712 114.137859,267.992741 113.295014,268.344385 C112.445372,268.709553 111.310249,268.959761 109.88285,269.135582 C108.462248,269.311404 106.667803,269.406077 104.526704,269.406077 C102.405996,269.406077 100.618348,269.311404 99.1909489,269.135582 C97.7703467,268.973286 96.6420215,268.709553 95.792379,268.344385 C94.9427365,267.992741 94.337791,267.573474 93.9843398,267.079821 C93.6172942,266.599693 93.4473657,265.991079 93.4473657,265.294555 L93.4473657,160.423681 L76.4885018,160.423681 C75.0611025,160.423681 74.0075458,159.713632 73.2802518,158.293534 C72.5665521,156.873436 72.2063037,154.580991 72.2063037,151.382389 C72.2063037,149.698558 72.3082608,148.291985 72.4713922,147.128857 C72.654915,145.992778 72.9268005,145.025759 73.2734547,144.28866 C73.626906,143.524512 74.0755172,142.997047 74.5988969,142.679216 C75.1426681,142.374909 75.7612079,142.219374 76.4681104,142.219374 L93.4337714,142.219374 L93.4337714,129.86452 C93.4337714,121.533277 94.2154425,114.378686 95.7787847,108.400749 C97.3217354,102.422812 99.7075315,97.5200917 102.915782,93.7128759 C106.130829,89.8988978 110.154735,87.0857508 115.007893,85.2599102 C119.861051,83.4543568 125.584243,82.5414365 132.177469,82.5414365 C135.297356,82.5414365 138.315286,82.8254561 141.265245,83.3934954 C144.194812,83.9750594 146.478651,84.6039601 148.075979,85.2531479 C149.680104,85.9226227 150.740457,86.5244739 151.284229,87.051939 C151.821203,87.5861664 152.263017,88.2759284 152.616468,89.121225 C152.990311,89.9597592 153.228211,90.974115 153.357356,92.1845797 C153.500096,93.3747573 153.581662,94.8151427 153.581662,96.4854487 Z" id="Path" fill="#86888F"></path>
                        <path d="M32.0916905,354.240334 C32.0916905,363.109212 24.9006879,370.290055 16.049193,370.290055 C7.19769817,370.290055 0,363.109212 0,354.240334 C0,345.384853 7.19100264,338.190608 16.049193,338.190608 C24.9073834,338.183914 32.0916905,345.384853 32.0916905,354.240334" id="Path" fill="#86888F"></path>
                        <path d="M32.0916905,82.5414365 C32.0916905,91.4170141 24.9006879,98.5911602 16.049193,98.5911602 C7.19769817,98.5911602 0,91.4170141 0,82.5414365 C0,73.6792559 7.19100264,66.4917127 16.049193,66.4917127 C24.9073834,66.4917127 32.0916905,73.6792559 32.0916905,82.5414365" id="Path" fill="#FF6500"></path>
                        <path d="M32.0916905,149.039848 C32.0916905,157.908727 24.9006879,165.082873 16.049193,165.082873 C7.19769817,165.082873 0,157.902028 0,149.039848 C0,140.157572 7.19100264,132.983425 16.049193,132.983425 C24.9073834,132.983425 32.0916905,140.16427 32.0916905,149.039848" id="Path" fill="#86888F"></path>
                        <path d="M32.0916905,215.524862 C32.0916905,224.393741 24.9006879,231.574586 16.049193,231.574586 C7.19769817,231.574586 0,224.400439 0,215.524862 C0,206.662681 7.19100264,199.475138 16.049193,199.475138 C24.9073834,199.481837 32.0916905,206.662681 32.0916905,215.524862" id="Path" fill="#86888F"></path>
                        <path d="M32.0916905,282.016554 C32.0916905,290.898818 24.9006879,298.066298 16.049193,298.066298 C7.19769817,298.086352 0,290.898818 0,282.016554 C0,273.167782 7.19100264,265.966851 16.049193,265.966851 C24.9073834,265.966851 32.0916905,273.167782 32.0916905,282.016554" id="Path" fill="#86888F"></path>
                        <path d="M32.0916905,16.0497214 C32.0916905,24.921595 24.9006879,32.0994475 16.049193,32.0994475 C7.19769817,32.1061386 0,24.921595 0,16.0497214 C0,7.19123938 7.19100264,0 16.049193,0 C24.9073834,0 32.0916905,7.19123938 32.0916905,16.0497214" id="Path" fill="#86888F"></path>
                        <path d="M294.519808,265.595869 C294.242913,267.170844 293.256897,268.284188 291.609034,268.922324 C289.981432,269.56046 287.212483,269.893105 283.34946,269.893105 C281.431456,269.893105 279.857882,269.798064 278.676014,269.621558 C277.480638,269.445052 276.528389,269.180294 275.7855,268.861226 C275.049365,268.535369 274.569864,268.128048 274.340244,267.605319 C274.097116,267.102957 274.083609,266.437666 274.252448,265.595869 L278.642246,242.337842 C277.460377,245.385961 275.299246,248.63774 272.185866,252.099968 C269.072486,255.562196 265.364795,258.746088 261.09656,261.665222 C256.835079,264.557201 252.06033,266.960395 246.860107,268.861226 C241.632871,270.741691 236.311085,271.698895 230.881242,271.698895 C225.478414,271.698895 220.764446,270.972506 216.77986,269.56046 C212.76826,268.128048 209.425259,266.206851 206.703585,263.810446 C204.022431,261.407252 201.807271,258.617103 200.10538,255.44 C198.410243,252.249319 197.073043,248.983963 196.107287,245.630353 C195.141532,242.256378 194.506699,238.862037 194.175776,235.447329 C193.85836,232.032622 193.696275,228.889462 193.696275,226.038215 C193.696275,220.688733 194.20279,214.67396 195.215821,208.034629 C196.228851,201.395297 197.836192,194.735599 200.044599,188.028381 C202.232744,181.355106 205.055722,174.797238 208.520286,168.375144 C211.957835,161.966628 216.11126,156.291289 220.980559,151.349128 C225.863365,146.413756 231.4688,142.435588 237.850891,139.380681 C244.226228,136.332562 251.452512,134.818686 259.543247,134.818686 C263.487312,134.818686 267.215264,135.246373 270.66632,136.122113 C274.178159,137.01143 277.352321,138.206239 280.175298,139.726903 C283.025291,141.247568 285.645662,143.073724 288.022907,145.191793 C290.413658,147.316651 292.561283,149.529761 294.513055,151.837913 L308.533395,81.2491907 C308.627944,80.5974772 308.904839,79.9729184 309.364079,79.3755143 C309.82332,78.7713216 310.51218,78.3164798 311.423908,77.9838344 C312.349142,77.6647663 313.537764,77.3864303 315.010035,77.1488264 C316.475552,76.9247999 318.373296,76.8093923 320.655991,76.8093923 C322.85089,76.8093923 324.681098,76.9315886 326.106094,77.1488264 C327.53109,77.3864303 328.652177,77.671555 329.455848,77.9838344 C330.286533,78.3029025 330.813308,78.7713216 331.049682,79.3755143 C331.265795,79.9729184 331.286056,80.5974772 331.130725,81.2491907 L294.519808,265.595869 Z M290.123256,173.969019 C285.800994,167.594446 281.141054,162.754115 276.143438,159.434449 C271.152575,156.114783 265.533633,154.444768 259.279859,154.444768 C254.430821,154.444768 250.034269,155.578478 246.130726,157.839109 C242.227182,160.09974 238.722097,163.127493 235.59521,166.908789 C232.461569,170.690085 229.773662,175.021265 227.558503,179.915905 C225.289315,184.810545 223.432092,189.868114 221.966575,195.068245 C220.487551,200.281953 219.379971,205.414197 218.650589,210.485343 C217.934714,215.563278 217.556516,220.233892 217.556516,224.476818 C217.556516,233.417513 219.082815,240.280872 222.101646,245.019372 C225.14749,249.785027 230.003282,252.161066 236.689283,252.161066 C241.72742,252.161066 246.819586,250.769386 251.904998,248.026758 C256.997164,245.250187 261.7449,241.42137 266.141452,236.52673 C270.544757,231.645667 274.461807,225.827766 277.845329,219.100182 C281.242357,212.365808 283.774933,204.979722 285.416042,196.935133 L290.123256,173.969019 Z" id="Shape" fill="#FF6500"></path>
                    </g>
                    <path d="M228.080229,131.837017 L228.080229,39.0042447 C228.080229,22.3443563 240.020632,8.08103664 256.416981,5.15159383 C275.624692,1.71719794 294.832403,0 314.040115,0 C333.247826,0 352.455537,1.71719794 371.663248,5.15159383 C388.059822,8.08098082 400,22.3446177 400,39.004717 L400,375.995283 C400,392.655382 388.059822,406.919019 371.663248,409.848406 C352.455537,413.282802 333.247826,415 314.040115,415 C294.832403,415 275.624692,413.282802 256.416981,409.848406 C240.020358,406.918865 228.080229,392.655126 228.080229,375.994951 L228.080229,316.40884 L228.080229,316.40884" id="Path" stroke="#FF6500" stroke-width="14.8997135"></path>
                </g>
            </g>
        </g>
    </g>
</svg>